<?xml version="1.0" standalone="no"?>
<!DOCTYPE svg PUBLIC "-//W3C//DTD SVG 20010904//EN"
 "http://www.w3.org/TR/2001/REC-SVG-20010904/DTD/svg10.dtd">
<svg version="1.0" xmlns="http://www.w3.org/2000/svg"
 width="205.000000pt" height="53.000000pt" viewBox="0 0 205.000000 53.000000"
 preserveAspectRatio="xMidYMid meet">

<g transform="translate(0.000000,53.000000) scale(0.100000,-0.100000)"
fill="#000000" stroke="none">
<path d="M7 523 c-4 -3 -7 -17 -7 -30 0 -21 5 -23 45 -23 43 0 45 1 45 30 0
28 -2 30 -38 30 -21 0 -42 -3 -45 -7z"/>
<path d="M1960 471 c0 -65 -3 -70 -26 -46 -26 26 -82 19 -115 -14 -26 -27 -29
-36 -29 -94 0 -56 4 -70 26 -96 21 -25 33 -31 67 -31 24 0 48 7 59 17 17 15
18 15 18 0 0 -13 10 -17 45 -17 l45 0 -2 168 -3 167 -42 3 -43 3 0 -60z m-16
-107 c19 -18 21 -85 4 -102 -48 -48 -103 38 -62 96 18 26 37 28 58 6z"/>
<path d="M438 473 c-2 -31 -7 -39 -25 -41 -35 -5 -32 -52 2 -52 25 0 25 -1 25
-79 0 -97 10 -111 81 -111 l49 0 0 35 c0 28 -4 35 -19 35 -23 0 -31 19 -31 76
0 40 2 44 25 44 34 0 37 47 3 52 -19 2 -24 10 -26 41 -3 36 -4 37 -42 37 -38
0 -39 -1 -42 -37z"/>
<path d="M240 423 c-17 -12 -25 -13 -28 -5 -2 7 -21 12 -43 12 l-39 0 0 -120
0 -120 40 0 40 0 0 64 c0 84 12 116 44 116 31 0 36 -15 36 -106 l0 -74 46 0
46 0 -4 106 c-3 97 -5 107 -27 125 -29 24 -79 25 -111 2z"/>
<path d="M660 427 c-35 -18 -70 -74 -70 -114 0 -46 24 -89 60 -108 60 -31 165
-12 190 35 10 19 8 20 -34 20 -25 0 -48 -4 -51 -10 -9 -14 -48 -13 -63 2 -7 7
-12 20 -12 31 0 17 7 18 85 15 l85 -3 0 30 c0 17 -6 41 -13 55 -25 50 -120 76
-177 47z m102 -61 c15 -21 8 -26 -37 -26 -34 0 -45 4 -45 15 0 30 63 38 82 11z"/>
<path d="M983 420 c-21 -24 -35 -26 -27 -5 5 12 -3 15 -40 15 l-46 0 0 -120 0
-120 45 0 45 0 0 69 c0 63 2 71 27 90 15 13 34 19 45 16 15 -6 18 -1 18 34 0
37 -2 41 -25 41 -14 0 -33 -9 -42 -20z"/>
<path d="M1196 419 c-21 -17 -26 -18 -26 -5 0 12 -11 16 -45 16 l-45 0 0 -120
0 -120 45 0 44 0 3 81 c3 86 16 110 52 96 13 -5 16 -22 16 -92 l0 -85 45 0 45
0 0 78 c0 80 9 102 41 102 23 0 29 -20 29 -106 l0 -74 46 0 46 0 -4 106 c-3
97 -5 107 -27 125 -28 23 -72 24 -112 4 -27 -14 -32 -14 -51 0 -31 21 -70 19
-102 -6z"/>
<path d="M1560 418 c-64 -43 -75 -140 -22 -193 31 -31 59 -39 123 -33 47 5 99
36 99 61 0 9 -62 5 -110 -8 -32 -8 -66 15 -57 39 6 15 19 17 87 15 44 -1 83 0
86 4 11 11 -17 84 -41 107 -38 35 -119 39 -165 8z m101 -38 c36 -20 23 -40
-26 -40 -50 0 -57 11 -23 34 27 19 24 19 49 6z"/>
<path d="M0 310 l0 -120 45 0 45 0 0 120 0 120 -45 0 -45 0 0 -120z"/>
<path d="M856 94 c-9 -23 0 -32 40 -40 25 -5 34 -11 32 -23 -5 -23 -49 -27
-65 -5 -7 10 -13 13 -13 8 0 -30 55 -45 78 -22 8 8 15 8 29 -3 16 -12 17 -12
6 2 -7 9 -9 20 -5 24 4 5 2 5 -4 2 -7 -4 -14 0 -18 8 -3 8 -13 15 -21 15 -9 0
-26 5 -37 11 -21 11 -21 12 -3 25 16 12 16 14 3 14 -9 0 -19 -7 -22 -16z"/>
<path d="M901 107 c2 -1 12 -9 22 -16 15 -12 17 -12 11 3 -3 9 -13 16 -22 16
-8 0 -13 -1 -11 -3z"/>
<path d="M771 88 c0 -10 -8 -18 -16 -18 -8 0 -15 -4 -15 -10 0 -5 6 -10 14
-10 8 0 17 -8 19 -18 4 -16 5 -16 6 1 0 9 8 17 16 17 8 0 15 5 15 10 0 6 -6
10 -14 10 -8 0 -17 8 -19 18 -4 16 -5 16 -6 0z"/>
<path d="M1007 60 c3 -11 7 -20 9 -20 2 0 4 9 4 20 0 11 -4 20 -9 20 -5 0 -7
-9 -4 -20z"/>
<path d="M1041 55 c-1 -34 14 -55 39 -54 10 0 9 3 -5 8 -12 5 -22 21 -26 42
l-6 34 -2 -30z"/>
<path d="M1134 54 c-9 -35 15 -59 50 -50 14 3 26 11 26 16 0 6 -8 5 -19 -1
-37 -24 -70 18 -39 49 9 9 9 12 0 12 -6 0 -15 -12 -18 -26z"/>
<path d="M1237 73 c-11 -11 -8 -48 5 -61 14 -14 44 -16 52 -4 2 4 -8 8 -22 7
-21 0 -28 5 -30 24 -2 13 2 28 10 32 7 5 8 9 2 9 -6 0 -14 -3 -17 -7z"/>
<path d="M1292 60 c7 -10 14 -18 15 -16 6 6 -9 36 -18 36 -5 0 -4 -9 3 -20z"/>
<path d="M1010 21 c0 -6 4 -13 10 -16 6 -3 7 1 4 9 -7 18 -14 21 -14 7z"/>
<path d="M1100 19 c0 -5 5 -7 10 -4 6 3 10 8 10 11 0 2 -4 4 -10 4 -5 0 -10
-5 -10 -11z"/>
</g>
</svg>
