<svg xmlns="http://www.w3.org/2000/svg" width="204.619" height="37.681" viewBox="0 0 204.619 37.681">
  <g id="Grupo_1" data-name="Grupo 1" transform="translate(-200.193 -258.511)">
    <path id="Caminho_1" data-name="Caminho 1" d="M210.414,268.822v26.83H200.193v-26.83Zm0-10.311v8.313H200.193v-8.313Z" fill="#258649"/>
    <path id="Caminho_2" data-name="Caminho 2" d="M254.267,306.278H244.046V289.39c0-1.395-.2-2.276-.62-2.663a2.213,2.213,0,0,0-1.564-.585q-2.777,0-2.778,4.013v16.123H228.864v-26.83h9.487v3.8q2.1-4.332,7.486-4.337a9.524,9.524,0,0,1,4.8,1.125,6.577,6.577,0,0,1,2.8,2.9q.839,1.782.839,6.181Z" transform="translate(-14.936 -10.626)" fill="#258649"/>
    <path id="Caminho_3" data-name="Caminho 3" d="M302.275,270.349v6.8h-5.189v9.888c0,1.359.244,2.159.742,2.411a3.219,3.219,0,0,0,1.529.387,12.033,12.033,0,0,0,2.917-.432v7.5a30.653,30.653,0,0,1-5.931.594q-4.717,0-6.927-2.088c-1.468-1.385-2.21-3.608-2.21-6.649l.026-3.14v-8.475h-3.879v-6.8h3.879l.157-8.746,9.7-.162v8.908Z" transform="translate(-43.322 -1.526)" fill="#258649"/>
    <path id="Caminho_4" data-name="Caminho 4" d="M341.076,289.651c-.018-1.79-.367-3-1.048-3.608a3.629,3.629,0,0,0-2.542-.927q-3.591,0-3.59,4.535Zm.734,6.964,9.487.657a11.62,11.62,0,0,1-4.315,6.757q-3.459,2.794-9.373,2.789-6.578,0-10.491-3.913A13.178,13.178,0,0,1,323.2,293.2a14.29,14.29,0,0,1,3.861-10.149,14.969,14.969,0,0,1,20.406-.243q3.852,3.9,3.853,10.608c0,.369-.009.881-.026,1.53h-17.4a7.2,7.2,0,0,0,.874,3.788c.541.819,1.581,1.233,3.118,1.233A3.61,3.61,0,0,0,341.809,296.615Z" transform="translate(-64.082 -10.626)" fill="#258649"/>
    <path id="Caminho_5" data-name="Caminho 5" d="M396.156,306.278h-9.8v-26.83H394.9v5.479q1.454-6.02,6.752-6.019a13.793,13.793,0,0,1,1.476.108v9.331a8.371,8.371,0,0,0-1.913-.261q-5.057,0-5.057,5.848Z" transform="translate(-96.981 -10.626)" fill="#258649"/>
    <path id="Caminho_6" data-name="Caminho 6" d="M463.63,306.278h-9.906V289.5a4.3,4.3,0,0,0-.472-2.357,1.881,1.881,0,0,0-1.659-.674q-2.844,0-2.848,4.3v15.512h-9.8V289.516q0-3.212-2.4-3.213-2.477,0-2.472,3.213v16.762h-9.853v-26.83h9.172v3.635a7.838,7.838,0,0,1,7.146-4.175,7.722,7.722,0,0,1,7.312,4.175,8.465,8.465,0,0,1,7.765-4.175,8.755,8.755,0,0,1,4.4,1.08,6.585,6.585,0,0,1,2.76,2.78,12.312,12.312,0,0,1,.856,5.263Z" transform="translate(-116.704 -10.626)" fill="#258649"/>
    <path id="Caminho_7" data-name="Caminho 7" d="M528.983,289.651c-.018-1.79-.367-3-1.048-3.608a3.629,3.629,0,0,0-2.542-.927q-3.591,0-3.59,4.535Zm.734,6.964,9.487.657a11.62,11.62,0,0,1-4.315,6.757q-3.459,2.794-9.373,2.789-6.578,0-10.491-3.913a13.178,13.178,0,0,1-3.913-9.708,14.29,14.29,0,0,1,3.861-10.149,14.969,14.969,0,0,1,20.406-.243q3.852,3.9,3.852,10.608c0,.369-.009.881-.026,1.53H521.8a7.2,7.2,0,0,0,.874,3.788c.541.819,1.581,1.233,3.118,1.233A3.61,3.61,0,0,0,529.716,296.615Z" transform="translate(-161.971 -10.626)" fill="#258649"/>
    <path id="Caminho_8" data-name="Caminho 8" d="M588.251,279.655q0-3.6-2.874-3.608c-1.345,0-2.218.765-2.638,2.295a21.947,21.947,0,0,0-.62,5.614q0,6.505,3.206,6.505a2.6,2.6,0,0,0,2.07-1.026,4.857,4.857,0,0,0,.856-3.14Zm10.063,17.23h-9.591v-3.563a7.286,7.286,0,0,1-7,4.1,8.8,8.8,0,0,1-7.295-3.617q-2.791-3.63-2.8-10.527,0-6.451,2.813-10.248a8.8,8.8,0,0,1,7.433-3.788,7.891,7.891,0,0,1,6.369,3.032v-11.4h10.063Z" transform="translate(-193.502 -1.233)" fill="#258649"/>
  </g>
</svg>
